HIERARCHY
ROOT joint_Root
{
	OFFSET 0.0 0.0 0.0
	CHANNELS 6 Xposition Yposition Zposition Zrotation Xrotation Yrotation 
	JOINT Hips
	{
		OFFSET -17.1583 93.1646 452.98
		CHANNELS 6 Xposition Yposition Zposition Zrotation Xrotation Yrotation 
		JOINT Spine
		{
			OFFSET 15.7357 0.0 0.0
			CHANNELS 6 Xposition Yposition Zposition Zrotation Xrotation Yrotation 
			JOINT Chest
			{
				OFFSET 8.98455 -0.406207 0.0
				CHANNELS 6 Xposition Yposition Zposition Zrotation Xrotation Yrotation 
				JOINT Neck
				{
					OFFSET 16.3773 0.0 0.0
					CHANNELS 6 Xposition Yposition Zposition Zrotation Xrotation Yrotation 
					JOINT Head
					{
						OFFSET 6.45672 0.0 0.0
						CHANNELS 6 Xposition Yposition Zposition Zrotation Xrotation Yrotation 
						End Site
						{
							OFFSET 0.0 0.0 0.0
						}
					}
				}
				JOINT Shoulder_L
				{
					OFFSET 12.9942 -0.242716 4.98039
					CHANNELS 6 Xposition Yposition Zposition Zrotation Xrotation Yrotation 
					JOINT UpperArm_L
					{
						OFFSET 5.34809 0.0 0.0
						CHANNELS 6 Xposition Yposition Zposition Zrotation Xrotation Yrotation 
						JOINT LowerArm_L
						{
							OFFSET 24.3286 1.87007e-05 0.0
							CHANNELS 6 Xposition Yposition Zposition Zrotation Xrotation Yrotation 
							JOINT Hand_L
							{
								OFFSET 22.2916 0.0 0.0
								CHANNELS 6 Xposition Yposition Zposition Zrotation Xrotation Yrotation 
								End Site
								{
									OFFSET 0.0 0.0 0.0
								}
							}
						}
					}
				}
				JOINT Shoulder_R
				{
					OFFSET 12.9945 -0.242716 -4.98039
					CHANNELS 6 Xposition Yposition Zposition Zrotation Xrotation Yrotation 
					JOINT UpperArm_R
					{
						OFFSET -5.34813 0.0 0.0
						CHANNELS 6 Xposition Yposition Zposition Zrotation Xrotation Yrotation 
						JOINT LowerArm_R
						{
							OFFSET -24.3289 0.000322201 0.0
							CHANNELS 6 Xposition Yposition Zposition Zrotation Xrotation Yrotation 
							JOINT Hand_R
							{
								OFFSET -22.2915 -0.000108084 0.0
								CHANNELS 6 Xposition Yposition Zposition Zrotation Xrotation Yrotation 
								End Site
								{
									OFFSET 0.0 0.0 0.0
								}
							}
						}
					}
				}
			}
		}
		JOINT UpperLeg_L
		{
			OFFSET -2.19248 -6.46944 0.0
			CHANNELS 6 Xposition Yposition Zposition Zrotation Xrotation Yrotation 
			JOINT LowerLeg_L
			{
				OFFSET 39.0811 0.0 -1.23785e-05
				CHANNELS 6 Xposition Yposition Zposition Zrotation Xrotation Yrotation 
				JOINT Foot_L
				{
					OFFSET 40.9854 0.0 -1.26872e-05
					CHANNELS 6 Xposition Yposition Zposition Zrotation Xrotation Yrotation 
					JOINT Toes_L
					{
						OFFSET 11.7543 0.0 0.0
						CHANNELS 6 Xposition Yposition Zposition Zrotation Xrotation Yrotation 
						End Site
						{
							OFFSET 0.0 0.0 0.0
						}
					}
				}
			}
		}
		JOINT UpperLeg_R
		{
			OFFSET -2.19251 6.46944 0.0
			CHANNELS 6 Xposition Yposition Zposition Zrotation Xrotation Yrotation 
			JOINT LowerLeg_R
			{
				OFFSET -39.0811 -0.00228153 -0.0401928
				CHANNELS 6 Xposition Yposition Zposition Zrotation Xrotation Yrotation 
				JOINT Foot_R
				{
					OFFSET -40.9854 0.0 0.0
					CHANNELS 6 Xposition Yposition Zposition Zrotation Xrotation Yrotation 
					JOINT Toes_R
					{
						OFFSET -11.7543 0.0 0.0
						CHANNELS 6 Xposition Yposition Zposition Zrotation Xrotation Yrotation 
						End Site
						{
							OFFSET 0.0 0.0 0.0
						}
					}
				}
			}
		}
	}
}
MOTION
Frames:	4
Frame Time:	0.0333333
0.000000 0.000000 0.000000 0.000000 0.000000 -0.000000 -2.808730 92.041500 -0.003230 83.480600 -1.860630 2.461090 15.735700 0.000005 -0.000001 59.184600 87.950500 -55.331700 8.984550 -0.406207 -0.000000 -4.152000 -2.498520 7.620330 16.377300 -0.000001 -0.000001 11.530100 3.086850 6.270760 6.456720 -0.000001 -0.000000 10.791500 7.616120 14.332600 12.994200 -0.242716 4.980390 -91.573600 4.491770 -70.670300 5.348090 -0.000007 -0.000001 -75.759100 -3.660250 -0.868829 24.328600 0.000019 0.000005 45.952300 -44.981500 -124.363000 22.291600 -0.000001 0.000005 48.370100 5.117290 4.714630 12.994500 -0.242716 -4.980390 87.435700 6.809530 -69.307600 -5.348130 -0.000001 -0.000004 -66.265500 10.157600 -5.466490 -24.328900 0.000322 -0.000009 22.018000 -25.134700 -136.406000 -22.291500 -0.000108 -0.000004 59.315500 5.672610 -17.813400 -2.192480 -6.469440 -0.000000 -171.931000 1.472500 -4.407040 39.081100 -0.000007 -0.000012 0.369804 -0.703382 27.734100 40.985400 -0.000006 -0.000013 0.315238 5.549520 -76.472300 11.754300 -0.000000 0.000003 0.000541 0.157961 -10.170400 -2.192510 6.469440 -0.000001 -170.149000 5.173590 -177.642000 -39.081100 -0.002282 -0.040193 0.076476 -0.272007 15.051400 -40.985400 0.000008 0.000006 3.020320 2.741890 -70.560300 -11.754300 -0.000006 -0.000006 -0.009679 0.268891 -5.649730
0.000000 0.000000 0.000000 0.000000 0.000000 -0.000000 -2.813110 92.044700 0.013935 83.493200 -1.809450 2.397520 15.735700 0.000005 -0.000001 59.011700 87.961000 -55.177500 8.984550 -0.406207 -0.000000 -4.176860 -2.497240 7.582480 16.377300 -0.000001 -0.000001 11.562800 3.077210 6.249400 6.456720 -0.000001 -0.000000 10.709300 7.579880 14.199500 12.994200 -0.242716 4.980390 -91.574200 4.484070 -70.632400 5.348090 -0.000007 -0.000001 -75.765800 -3.824470 -0.808106 24.328600 0.000019 0.000005 45.818700 -44.907000 -124.453000 22.291600 -0.000001 0.000005 48.475200 5.118890 4.677100 12.994500 -0.242716 -4.980390 87.447000 6.778710 -69.305900 -5.348130 -0.000001 -0.000004 -66.321500 10.113600 -5.404300 -24.328900 0.000322 -0.000009 21.993600 -25.074400 -136.377000 -22.291500 -0.000108 -0.000004 59.330100 5.672600 -17.811000 -2.192480 -6.469440 -0.000000 -171.944000 1.449510 -4.446760 39.081100 -0.000007 -0.000012 0.372908 -0.710395 27.697200 40.985400 -0.000006 -0.000013 0.367299 5.552190 -76.515200 11.754300 -0.000000 0.000003 0.000407 0.160458 -10.069000 -2.192510 6.469440 -0.000001 -170.143000 5.142000 -177.689000 -39.081100 -0.002282 -0.040193 0.076552 -0.272716 15.029000 -40.985400 0.000008 0.000006 2.973730 2.661910 -70.585800 -11.754300 -0.000006 -0.000006 -0.010117 0.272178 -5.515290
0.000000 0.000000 0.000000 0.000000 0.000000 -0.000000 -2.815490 92.054600 0.032800 83.508900 -1.791910 2.333710 15.735700 0.000005 -0.000001 59.232300 87.969300 -55.419300 8.984550 -0.406207 -0.000000 -4.184430 -2.473330 7.540680 16.377300 -0.000001 -0.000001 11.531100 3.064340 6.246490 6.456720 -0.000001 -0.000000 10.690900 7.537350 14.122000 12.994200 -0.242716 4.980390 -91.576600 4.487730 -70.620500 5.348090 -0.000007 -0.000001 -75.783500 -3.920330 -0.842796 24.328600 0.000019 0.000005 45.671900 -44.862900 -124.569000 22.291600 -0.000001 0.000005 48.453700 5.114920 4.769320 12.994500 -0.242716 -4.980390 87.449700 6.769740 -69.300900 -5.348130 -0.000001 -0.000004 -66.342200 10.025900 -5.357750 -24.328900 0.000322 -0.000009 21.645500 -24.723500 -136.503000 -22.291500 -0.000108 -0.000004 59.259500 5.674050 -18.075800 -2.192480 -6.469440 -0.000000 -171.937000 1.443250 -4.472660 39.081100 -0.000007 -0.000012 0.364348 -0.696162 27.626900 40.985400 -0.000006 -0.000013 0.280523 5.592450 -76.431200 11.754300 -0.000000 0.000003 0.000548 0.157822 -10.176000 -2.192510 6.469440 -0.000001 -170.147000 5.049380 -177.707000 -39.081100 -0.002282 -0.040193 0.074365 -0.266104 14.946300 -40.985400 0.000008 0.000006 2.912010 2.586090 -70.526200 -11.754300 -0.000006 -0.000006 -0.010030 0.271529 -5.541820
0.000000 0.000000 0.000000 0.000000 0.000000 -0.000000 -2.816640 92.056200 0.055164 83.533100 -1.759850 2.279680 15.735700 0.000005 -0.000001 59.315700 87.976000 -55.537200 8.984550 -0.406207 -0.000000 -4.194310 -2.458190 7.472140 16.377300 -0.000001 -0.000001 11.611900 3.090690 6.182610 6.456720 -0.000001 -0.000000 10.467100 7.502370 14.208400 12.994200 -0.242716 4.980390 -91.570700 4.456780 -70.563500 5.348090 -0.000007 -0.000001 -75.811400 -4.002000 -0.913275 24.328600 0.000019 0.000005 45.634000 -44.830100 -124.589000 22.291600 -0.000001 0.000005 48.590700 5.109920 4.885150 12.994500 -0.242716 -4.980390 87.431300 6.812940 -69.284300 -5.348130 -0.000001 -0.000004 -66.349400 9.869110 -5.305930 -24.328900 0.000322 -0.000009 21.627900 -24.711400 -136.515000 -22.291500 -0.000108 -0.000004 59.309700 5.673980 -18.064100 -2.192480 -6.469440 -0.000000 -171.976000 1.500150 -4.499320 39.081100 -0.000007 -0.000012 0.368945 -0.705684 27.602300 40.985400 -0.000006 -0.000013 0.279558 5.583690 -76.498600 11.754300 -0.000000 0.000003 0.000298 0.162454 -9.988020 -2.192510 6.469440 -0.000001 -170.191000 5.182150 -177.729000 -39.081100 -0.002282 -0.040193 0.073764 -0.264343 14.919800 -40.985400 0.000008 0.000006 2.907240 2.710580 -70.526200 -11.754300 -0.000006 -0.000006 -0.009740 0.269349 -5.631000
